# xmcd CD database file
#
# Track frame offsets:
#        150
#        17836
#        35556
#        49071
#        62370
#        77487
#        92697
#        108412
#        122989
#        137128
#        153229
#        171887
#        186910
#        200451
#        216475
#        232341
#        251955
#
# Disc length: 3688 seconds
#
# Revision: 0
# Processed by: cddbd v1.5.2PL0 Copyright (c) Steve Scherf et al.
# Submitted via: CUERipper 2.1.5
#
DISCID=f60e6611
DTITLE=Adam Brand - Milestones... 20 Years
DYEAR=2018
DGENRE=Country
TTITLE0=Ready For Love
TTITLE1=Hell of a Ride
TTITLE2=It's Gonna Be OK
TTITLE3=She Got Away
TTITLE4=I Was Here
TTITLE5=There Will Be Love
TTITLE6=Freedom Rebels
TTITLE7=Hearts I Leave Behind
TTITLE8=My Side of the Street
TTITLE9=Good Year For The Outlaw
TTITLE10=If Heaven Was A Soundtrack
TTITLE11=Drunk
TTITLE12=Get On Your Feet
TTITLE13=For Ever and Ever Amen
TTITLE14=Hold My Hand
TTITLE15=Hard Times
TTITLE16=Sheriff Bullfrog
EXTD=
EXTT0=
EXTT1=
EXTT2=
EXTT3=
EXTT4=
EXTT5=
EXTT6=
EXTT7=
EXTT8=
EXTT9=
EXTT10=
EXTT11=
EXTT12=
EXTT13=
EXTT14=
EXTT15=
EXTT16=
PLAYORDER=
